# xmcd
#
# Track frame offsets: 
#        150
#        41956
#        74108
#        91101
#        139139
#
# Disc length: 2451 seconds
#
# Revision: 0
# Processed by: cddbd v1.5.1PL2 Copyright (c) Steve Scherf et al.
# Submitted via: ExactAudioCopy v0.95a5
#
DISCID=49099105
DTITLE=Väldchengarten - Electrical Bonding
DYEAR=2005
DGENRE=Noise
TTITLE0=Cancels Out If Need Be
TTITLE1=Replaced After Re-Fusing
TTITLE2=Connection Lost
TTITLE3=Electrical Bonding
TTITLE4=Endless Manipulations
EXTD=
EXTT0=
EXTT1=
EXTT2=
EXTT3=
EXTT4=
PLAYORDER=
